#!OML:ASF H:\Dans Jumps\Project 1\Capture day 1\Session 1\subject.ASF
:FULLY-SPECIFIED
:DEGREES
420
root 0.179691 17.3292 -6.43276 8.14245 -0.0445955 -0.649722
lowerback 3.58076 0.145581 -0.725026
upperback 5.47438 0.151832 1.27949
thorax 3.62615 0.0197072 1.72431
lowerneck -12.3918 0.104259 -1.33272
upperneck 34.5931 0.26056 0.748201
head 13.7922 0.0421559 0.575196
rclavicle -9.93923e-017 0
rhumerus -43.295 -23.387 -65.3012
rradius 24.2215
rwrist 35.5295
rhand -19.0648 -22.2765
rfingers 7.12502
rthumb 7.24258 -52.1326
lclavicle -9.93923e-017 0
lhumerus -36.5758 2.60805 80.5324
lradius 20.9607
lwrist 15.0976
lhand -29.4014 -10.1842
lfingers 7.12502
lthumb -2.7394 19.7779
rfemur -22.0079 -3.0857 18.9758
rtibia 35.2813
rfoot -19.7795 -1.52809
rtoes 6.74821
lfemur -20.871 5.83868 -19.0955
ltibia 32.0217
lfoot -16.0384 9.15687
ltoes 1.311
421
root 0.178078 17.3283 -6.43007 8.13659 -0.056456 -0.650748
lowerback 3.56139 0.140939 -0.717895
upperback 5.48357 0.145595 1.282
thorax 3.64686 0.0166052 1.72303
lowerneck -12.4153 0.113784 -1.32057
upperneck 34.6251 0.281217 0.720178
head 13.8116 0.0487338 0.565223
rclavicle 5.96354e-016 -5.96354e-016
rhumerus -43.2495 -23.3506 -65.3719
rradius 24.2386
rwrist 35.5038
rhand -19.1055 -22.2511
rfingers 7.12502
rthumb 7.20335 -52.1085
lclavicle 5.96354e-016 -5.96354e-016
lhumerus -36.5495 2.67607 80.4995
lradius 20.9346
lwrist 15.0271
lhand -29.4482 -10.2946
lfingers 7.12502
lthumb -2.7846 19.667
rfemur -21.9999 -3.08189 18.9825
rtibia 35.2929
rfoot -19.7937 -1.52645
rtoes 6.73072
lfemur -20.8583 5.82179 -19.0868
ltibia 32.0353
lfoot -16.0398 9.19447
ltoes 1.27504
422
root 0.176547 17.3274 -6.42756 8.13178 -0.06658 -0.650976
lowerback 3.54491 0.136025 -0.711121
upperback 5.49043 0.139016 1.28394
thorax 3.66353 0.0133754 1.72135
lowerneck -12.423 0.123196 -1.31415
upperneck 34.647 0.300673 0.699001
head 13.823 0.0549978 0.5587
rclavicle -9.93923e-016 5.96354e-015
rhumerus -43.211 -23.328 -65.4286
rradius 24.2528
rwrist 35.4931
rhand -19.1126 -22.2556
rfingers 7.12502
rthumb 7.19643 -52.1133
lclavicle -9.93923e-016 5.96354e-015
lhumerus -36.5332 2.74617 80.4648
lradius 20.888
lwrist 14.9279
lhand -29.5615 -10.5478
lfingers 7.12502
lthumb -2.89402 19.4123
rfemur -21.9943 -3.08205 18.9884
rtibia 35.3058
rfoot -19.8078 -1.52298
rtoes 6.7137
lfemur -20.849 5.8021 -19.0794
ltibia 32.0515
lfoot -16.0401 9.23427
ltoes 1.23105
423
root 0.175067 17.3266 -6.42525 8.12874 -0.0802156 -0.650298
lowerback 3.52984 0.132318 -0.707392
upperback 5.49583 0.134011 1.2861
thorax 3.67783 0.0108338 1.72158
lowerneck -12.4218 0.131397 -1.31575
upperneck 34.6637 0.31813 0.684419
head 13.8301 0.0602525 0.555868
rclavicle -1.88845e-015 -6.36111e-015
rhumerus -43.177 -23.315 -65.4752
rradius 24.2672
rwrist 35.4863
rhand -19.0904 -22.2932
rfingers 7.12502
rthumb 7.21789 -52.1501
lclavicle -1.88845e-015 -6.36111e-015
lhumerus -36.5223 2.81973 80.4296
lradius 20.8208
lwrist 14.8093
lhand -29.7287 -10.9186
lfingers 7.12502
lthumb -3.05546 19.0393
rfemur -21.9925 -3.07831 18.9927
rtibia 35.3197
rfoot -19.8208 -1.51716
rtoes 6.7084
lfemur -20.843 5.7817 -19.0736
ltibia 32.0685
lfoot -16.038 9.27803
ltoes 1.18602
424
root 0.173673 17.3258 -6.42305 8.12544 -0.0959465 -0.649912
lowerback 3.5169 0.130599 -0.7035
upperback 5.50064 0.131665 1.28786
thorax 3.69022 0.00965062 1.72129
lowerneck -12.4169 0.136582 -1.31964
upperneck 34.6805 0.330472 0.673488
head 13.8363 0.0634924 0.554122
rclavicle 7.95139e-016 -6.16232e-015
rhumerus -43.1499 -23.315 -65.5108
rradius 24.2836
rwrist 35.4753
rhand -19.0513 -22.3309
rfingers 7.12502
rthumb 7.25559 -52.1865
lclavicle 7.95139e-016 -6.16232e-015
lhumerus -36.5151 2.88607 80.3966
lradius 20.7404
lwrist 14.6856
lhand -29.9303 -11.3527
lfingers 7.12502
lthumb -3.25013 18.6023
rfemur -21.9903 -3.07276 18.9966
rtibia 35.3333
rfoot -19.8324 -1.51017
rtoes 6.70149
lfemur -20.8364 5.76099 -19.0679
ltibia 32.0846
lfoot -16.0354 9.32288
ltoes 1.14997
